<?xml version="1.0" encoding="UTF-8" standalone="no"?>
<!-- Created with Inkscape (http://www.inkscape.org/) -->

<svg
   width="32"
   height="32"
   viewBox="0 0 16.933333 16.933333"
   version="1.1"
   id="svg1"
   xmlns="http://www.w3.org/2000/svg"
   xmlns:svg="http://www.w3.org/2000/svg">
  <defs
     id="defs1" />
  <g
     id="layer1">
    <path
       d="M 8.466667,0 A 8.4666585,8.4666584 0 0 0 7.2617432,0.0861551 8.4666585,8.4666584 0 0 0 6.0813212,0.34297077 8.4666585,8.4666584 0 0 0 4.9495019,0.76509675 8.4666585,8.4666584 0 0 0 3.8892375,1.3440318 8.4666585,8.4666584 0 0 0 2.9221782,2.0679762 8.4666585,8.4666584 0 0 0 2.0680263,2.9221782 8.4666585,8.4666584 0 0 0 1.344082,3.8892371 8.4666585,8.4666584 0 0 0 0.76514655,4.9494517 8.4666585,8.4666584 0 0 0 0.34297078,6.081321 8.4666585,8.4666584 0 0 0 0.08620523,7.2617427 8.4666585,8.4666584 0 0 0 0,8.4666662 a 8.4666585,8.4666584 0 0 0 0.08620523,1.2049234 8.4666585,8.4666584 0 0 0 0.25676555,1.1803724 8.4666585,8.4666584 0 0 0 0.42217577,1.131869 8.4666585,8.4666584 0 0 0 0.57893545,1.060265 8.4666585,8.4666584 0 0 0 0.7239443,0.967058 8.4666585,8.4666584 0 0 0 0.8541519,0.854153 8.4666585,8.4666584 0 0 0 0.9670593,0.723944 8.4666585,8.4666584 0 0 0 1.0602644,0.578935 8.4666585,8.4666584 0 0 0 1.1318193,0.422176 8.4666585,8.4666584 0 0 0 1.180422,0.256766 8.4666585,8.4666584 0 0 0 1.2049238,0.0862 8.4666585,8.4666584 0 0 0 1.2049235,-0.0862 8.4666585,8.4666584 0 0 0 1.1804215,-0.256766 8.4666585,8.4666584 0 0 0 1.131819,-0.422176 8.4666585,8.4666584 0 0 0 1.060265,-0.578935 8.4666585,8.4666584 0 0 0 0.967059,-0.723944 8.4666585,8.4666584 0 0 0 0.854202,-0.854153 8.4666585,8.4666584 0 0 0 0.723945,-0.967058 8.4666585,8.4666584 0 0 0 0.578935,-1.060265 8.4666585,8.4666584 0 0 0 0.422126,-1.131869 8.4666585,8.4666584 0 0 0 0.256816,-1.1803724 8.4666585,8.4666584 0 0 0 0.08615,-1.2049234 8.4666585,8.4666584 0 0 0 -0.0102,-0.4154753 8.4666585,8.4666584 0 0 0 -0.03055,-0.4144247 8.4666585,8.4666584 0 0 0 -0.0509,-0.4124259 8.4666585,8.4666584 0 0 0 -0.071,-0.4094747 8.4666585,8.4666584 0 0 0 -0.09106,-0.405424 A 8.4666585,8.4666584 0 0 0 16.568762,6.0089161 8.4666585,8.4666584 0 0 0 16.438403,5.6143427 8.4666585,8.4666584 0 0 0 16.288845,5.2266192 8.4666585,8.4666584 0 0 0 16.120434,4.8466955 8.4666585,8.4666584 0 0 0 15.933622,4.4755229 8.4666585,8.4666584 0 0 0 15.72876,4.1139008 8.4666585,8.4666584 0 0 0 15.506447,3.7628294 8.4666585,8.4666584 0 0 0 15.267181,3.4230587 8.4666585,8.4666584 0 0 0 15.011516,3.095439 8.4666585,8.4666584 0 0 0 14.740049,2.7807696 8.4666585,8.4666584 0 0 0 14.453532,2.4798009 8.4666585,8.4666584 0 0 0 14.152514,2.1932835 8.4666585,8.4666584 0 0 0 13.837844,1.9218171 8.4666585,8.4666584 0 0 0 13.510274,1.6661519 8.4666585,8.4666584 0 0 0 13.170503,1.426887 8.4666585,8.4666584 0 0 0 12.819432,1.2045736 8.4666585,8.4666584 0 0 0 12.45781,0.99971079 8.4666585,8.4666584 0 0 0 12.086637,0.81289955 8.4666585,8.4666584 0 0 0 11.706715,0.64448909 8.4666585,8.4666584 0 0 0 11.318991,0.49493016 8.4666585,8.4666584 0 0 0 10.924417,0.36457229 8.4666585,8.4666584 0 0 0 10.523892,0.25371551 8.4666585,8.4666584 0 0 0 10.118417,0.1626599 8.4666585,8.4666584 0 0 0 9.7089925,0.09165573 8.4666585,8.4666584 0 0 0 9.2965676,0.04075243 8.4666585,8.4666584 0 0 0 8.8820921,0.01020131 8.4666585,8.4666584 0 0 0 8.466667,6.774014e-7 Z m 0,0.96760925 a 7.4990405,7.4990403 0 0 1 0.3924737,0.0103022 7.4990405,7.4990403 0 0 1 0.3914238,0.0308017 7.4990405,7.4990403 0 0 1 0.3892242,0.051203 7.4990405,7.4990403 0 0 1 0.3860233,0.071554 7.4990405,7.4990403 0 0 1 0.381773,0.091656 7.4990405,7.4990403 0 0 1 0.376423,0.1115066 7.4990405,7.4990403 0 0 1 0.370073,0.131058 7.4990405,7.4990403 0 0 1 0.362723,0.1502592 7.4990405,7.4990403 0 0 1 0.35437,0.1690103 7.4990405,7.4990403 0 0 1 0.345022,0.1873114 7.4990405,7.4990403 0 0 1 0.33477,0.2051627 7.4990405,7.4990403 0 0 1 0.32352,0.2223638 7.4990405,7.4990403 0 0 1 0.31147,0.2390143 7.4990405,7.4990403 0 0 1 0.298567,0.2549656 7.4990405,7.4990403 0 0 1 0.284768,0.2702664 7.4990405,7.4990403 0 0 1 0.270266,0.2847676 7.4990405,7.4990403 0 0 1 0.254966,0.2985678 7.4990405,7.4990403 0 0 1 0.239014,0.3114689 7.4990405,7.4990403 0 0 1 0.222363,0.3235198 7.4990405,7.4990403 0 0 1 0.205113,0.3347703 7.4990405,7.4990403 0 0 1 0.187362,0.3450214 7.4990405,7.4990403 0 0 1 0.16901,0.3543717 7.4990405,7.4990403 0 0 1 0.150259,0.3627225 7.4990405,7.4990403 0 0 1 0.131059,0.3700722 7.4990405,7.4990403 0 0 1 0.111506,0.3764229 7.4990405,7.4990403 0 0 1 0.09166,0.3817735 7.4990405,7.4990403 0 0 1 0.0715,0.3860238 7.4990405,7.4990403 0 0 1 0.05125,0.3892232 7.4990405,7.4990403 0 0 1 0.0308,0.3914235 7.4990405,7.4990403 0 0 1 0.0103,0.392474 7.4990405,7.4990403 0 0 1 -0.09236,1.1730726 7.4990405,7.4990403 0 0 1 -0.274666,1.1442699 7.4990405,7.4990403 0 0 1 -0.450328,1.087115 7.4990405,7.4990403 0 0 1 -0.614838,1.003363 7.4990405,7.4990403 0 0 1 -0.764246,0.894803 7.4990405,7.4990403 0 0 1 -0.894805,0.764197 7.4990405,7.4990403 0 0 1 -1.003311,0.614838 7.4990405,7.4990403 0 0 1 -1.087167,0.450328 A 7.4990405,7.4990403 0 0 1 9.6397791,15.87337 7.4990405,7.4990403 0 0 1 8.4666684,15.965676 7.4990405,7.4990403 0 0 1 7.2935467,15.87337 7.4990405,7.4990403 0 0 1 6.1493268,15.598654 7.4990405,7.4990403 0 0 1 5.0621604,15.148326 7.4990405,7.4990403 0 0 1 4.0588492,14.533488 7.4990405,7.4990403 0 0 1 3.1640445,13.769291 7.4990405,7.4990403 0 0 1 2.3998479,12.874488 7.4990405,7.4990403 0 0 1 1.7849603,11.871125 7.4990405,7.4990403 0 0 1 1.334683,10.78401 7.4990405,7.4990403 0 0 1 1.059966,9.6397404 7.4990405,7.4990403 0 0 1 0.96766075,8.4666678 7.4990405,7.4990403 0 0 1 1.059966,7.2935472 7.4990405,7.4990403 0 0 1 1.334683,6.149327 7.4990405,7.4990403 0 0 1 1.7849603,5.0621606 7.4990405,7.4990403 0 0 1 2.3998479,4.0588491 7.4990405,7.4990403 0 0 1 3.1640445,3.1640447 7.4990405,7.4990403 0 0 1 4.0588492,2.3997984 7.4990405,7.4990403 0 0 1 5.0621604,1.7849606 7.4990405,7.4990403 0 0 1 6.1493268,1.3346331 7.4990405,7.4990403 0 0 1 7.2935467,1.0599162 7.4990405,7.4990403 0 0 1 8.4666684,0.96761095 Z"
       style="fill:#ffffff;stroke-width:0.0259337"
       id="path4" />
    <rect
       style="fill:#ffffff;stroke-width:0.0256015"
       id="rect4"
       width="1.4514272"
       height="11.611418"
       x="7.740963"
       y="2.4190397"
       rx="0.96761811"
       ry="0.96761811" />
    <rect
       style="fill:#ffffff;stroke-width:0.0256015"
       id="rect5"
       width="11.611418"
       height="1.4514272"
       x="2.4190629"
       y="7.2571321"
       rx="0.96761811"
       ry="0.96761811" />
  </g>
</svg>
