<?xml version="1.0" encoding="UTF-8" standalone="no"?>
<!-- Created with Inkscape (http://www.inkscape.org/) -->

<svg
   width="32"
   height="32"
   viewBox="0 0 8.4666666 8.4666666"
   version="1.1"
   id="svg1"
   inkscape:version="1.3.2 (091e20ef0f, 2023-11-25, custom)"
   sodipodi:docname="apply.svg"
   xmlns:inkscape="http://www.inkscape.org/namespaces/inkscape"
   xmlns:sodipodi="http://sodipodi.sourceforge.net/DTD/sodipodi-0.dtd"
   xmlns="http://www.w3.org/2000/svg"
   xmlns:svg="http://www.w3.org/2000/svg">
  <sodipodi:namedview
     id="namedview1"
     pagecolor="#505050"
     bordercolor="#ffffff"
     borderopacity="1"
     inkscape:showpageshadow="0"
     inkscape:pageopacity="0"
     inkscape:pagecheckerboard="1"
     inkscape:deskcolor="#505050"
     inkscape:document-units="px"
     inkscape:zoom="20.48127"
     inkscape:cx="17.186434"
     inkscape:cy="15.233431"
     inkscape:window-width="3360"
     inkscape:window-height="1323"
     inkscape:window-x="40"
     inkscape:window-y="925"
     inkscape:window-maximized="1"
     inkscape:current-layer="layer1" />
  <defs
     id="defs1" />
  <g
     inkscape:label="Layer 1"
     inkscape:groupmode="layer"
     id="layer1">
    <path
       d="M 6.6952261,1.1012248 C 6.5343997,1.0947043 6.3606329,1.1969029 6.2580434,1.3745931 L 3.6597525,5.8750935 4.2405955,6.4559366 6.94534,1.7714681 C 7.082126,1.5345478 7.039117,1.2550839 6.848705,1.1451497 6.801102,1.1176667 6.748835,1.1033987 6.6952261,1.1012248 Z"
       style="fill:#f9f9f9;stroke-width:0.201007"
       id="path5" />
    <path
       d="M 4.2405955,6.4559366 3.6597525,5.8750935 3.4442617,6.2476806 C 3.3401704,6.4279721 3.3408135,6.6326132 3.4308259,6.768579 l 0.093534,0.093534 c 0.00566,0.00376 0.011103,0.00793 0.017053,0.011369 0.1904116,0.1099342 0.4533589,0.00799 0.5901449,-0.2289266 z"
       style="fill:#f9f9f9;stroke-width:0.264583"
       id="path4" />
    <path
       d="M 3.4308259,6.768579 C 3.3408135,6.6326132 3.3401704,6.4279721 3.4442617,6.2476806 L 3.6597525,5.8750935 2.2277985,4.4431396 C 2.0307889,4.24613 1.7471322,4.2127383 1.5916616,4.3682088 1.4361911,4.5236793 1.4695828,4.807336 1.6665925,5.0043457 Z"
       style="fill:#f9f9f9;stroke-width:0.264583"
       id="path3" />
  </g>
</svg>
