<?xml version="1.0" encoding="UTF-8" standalone="no"?>
<!-- Created with Inkscape (http://www.inkscape.org/) -->

<svg
   width="32"
   height="32"
   viewBox="0 0 8.4666666 8.4666666"
   version="1.1"
   id="svg1"
   sodipodi:docname="change_profile.svg"
   inkscape:version="1.3.2 (091e20ef0f, 2023-11-25, custom)"
   xmlns:inkscape="http://www.inkscape.org/namespaces/inkscape"
   xmlns:sodipodi="http://sodipodi.sourceforge.net/DTD/sodipodi-0.dtd"
   xmlns="http://www.w3.org/2000/svg"
   xmlns:svg="http://www.w3.org/2000/svg">
  <sodipodi:namedview
     id="namedview1"
     pagecolor="#505050"
     bordercolor="#ffffff"
     borderopacity="1"
     inkscape:showpageshadow="0"
     inkscape:pageopacity="0"
     inkscape:pagecheckerboard="1"
     inkscape:deskcolor="#505050"
     inkscape:document-units="px"
     inkscape:zoom="21.528425"
     inkscape:cx="10.753225"
     inkscape:cy="20.252294"
     inkscape:window-width="2009"
     inkscape:window-height="1323"
     inkscape:window-x="40"
     inkscape:window-y="925"
     inkscape:window-maximized="1"
     inkscape:current-layer="layer1" />
  <defs
     id="defs1" />
  <g
     inkscape:label="Layer 1"
     inkscape:groupmode="layer"
     id="layer1">
    <path
       d="m 1.2309326,0.26458333 c -0.53523982,0 -0.96634927,0.44566948 -0.96634927,0.99942217 v 4.3511556 c 0,0.5537528 0.43110945,0.9994222 0.96634927,0.9994222 H 2.1373372 C 2.1240222,6.5482489 2.1166667,6.4794511 2.1166667,6.4089111 V 6.35 H 1.3828613 C 0.91452646,6.35 0.53743489,5.9413834 0.53743489,5.4337768 v -3.988387 c 0,-0.50760666 0.37709157,-0.91622314 0.84542641,-0.91622314 h 2.0133138 c 0.3402855,0 0.631546,0.21649537 0.7658447,0.52916664 H 4.4772461 C 4.3860334,0.60392973 3.9986253,0.26458333 3.5315674,0.26458333 Z"
       style="fill:#f9f9f9;stroke-width:0.260007"
       id="path42" />
    <path
       d="m 4.4772461,1.0583333 c 0.013315,0.066334 0.02067,0.1351322 0.02067,0.2056722 v 0.058911 h 0.7503418 c 0.3403325,0 0.6315399,0.2164953 0.7658447,0.5291666 H 6.3293294 C 6.2381176,1.3976797 5.8507608,1.0583333 5.3836507,1.0583333 Z"
       style="fill:#f9f9f9;stroke-width:0.260007"
       id="path43" />
    <path
       d="M 4.4772461,1.0583333 H 4.1620198 c 0.035373,0.082354 0.059841,0.170948 0.071313,0.2645834 h 0.2645833 v -0.058911 c 0,-0.07054 -0.00736,-0.1393378 -0.02067,-0.2056722 z"
       style="fill:#f9f9f9;stroke-width:0.260007"
       id="path41" />
    <path
       d="M 2.4690999,6.6145833 C 2.4337271,6.5322296 2.4092594,6.4436353 2.3977864,6.35 H 2.1166667 v 0.058911 c 0,0.07054 0.00736,0.1393378 0.020671,0.2056722 z"
       style="fill:#f9f9f9;stroke-width:0.260007"
       id="path40" />
    <path
       d="m 2.1166667,6.35 h 0.2811197 c -0.00492,-0.040141 -0.00827,-0.080829 -0.00827,-0.1224732 v -3.988387 c 0,-0.5076067 0.3771269,-0.9162231 0.8454264,-0.9162231 H 4.2333333 C 4.2218605,1.2292813 4.1973924,1.140687 4.1620198,1.0583333 H 3.0830159 c -0.5351994,0 -0.9663492,0.4456695 -0.9663492,0.9994222 z"
       style="fill:#f9f9f9;stroke-width:0.260007"
       id="path39" />
    <path
       d="M 2.4690999,6.6145833 H 2.1373372 c 0.09121,0.4544036 0.4786559,0.79375 0.9456787,0.79375 H 3.9894205 C 3.9761052,7.3419988 3.96875,7.2732011 3.96875,7.2026611 V 7.1437499 H 3.2349446 c -0.3402598,0 -0.6315453,-0.2164953 -0.7658447,-0.5291666 z"
       style="fill:#f9f9f9;stroke-width:0.260007"
       id="path38" />
    <path
       d="m 3.96875,7.1437499 v 0.058911 c 0,0.07054 0.00736,0.1393377 0.020671,0.2056722 H 4.3211832 C 4.2858106,7.3259796 4.2613425,7.2373853 4.2498698,7.1437499 Z"
       style="fill:#f9f9f9;stroke-width:0.260007"
       id="path37" />
    <path
       d="M 4.2416015,6.2926391 C 4.163967,6.3796962 4.0719877,6.451989 3.96875,6.5060628 v 0.6376871 h 0.2811198 c -0.00492,-0.040141 -0.00827,-0.080829 -0.00827,-0.1224731 z"
       style="fill:#f9f9f9;stroke-width:0.260007"
       id="path36" />
    <path
       d="M 4.2416015,6.2926391 V 5.4337768 c 0,0.2674592 -0.1052851,0.506659 -0.2728515,0.6738607 V 6.5060628 C 4.0719877,6.451989 4.163967,6.3796962 4.2416015,6.2926391 Z"
       style="fill:#f9f9f9;stroke-width:0.260007"
       id="path35" />
    <path
       d="M 4.2416015,2.155424 C 4.0730146,2.3351503 3.96875,2.5801329 3.96875,2.8515055 v 3.256132 C 4.1363164,5.9404358 4.2416015,5.701236 4.2416015,5.4337768 v -2.400887 z"
       style="fill:#f9f9f9;stroke-width:0.260007"
       id="path34" />
    <path
       d="M 4.4979166,1.9606038 C 4.4020158,2.0108346 4.3156585,2.0764736 4.2416015,2.155424 v 0.8774658 c 0,-0.2587687 0.09819,-0.4915428 0.2563151,-0.657841 z"
       style="fill:#f9f9f9;stroke-width:0.260007"
       id="path33" />
    <path
       d="m 4.4979166,1.9606038 v 0.414445 C 4.6499739,2.2151325 4.8574417,2.1166667 5.087028,2.1166667 H 6.0854166 C 6.0739435,2.0230313 6.0494774,1.934437 6.0141031,1.8520833 H 4.9350992 c -0.1577162,0 -0.3059149,0.039765 -0.4371826,0.1085205 z"
       style="fill:#f9f9f9;stroke-width:0.260007"
       id="path32" />
    <path
       d="M 6.0854166,2.1166667 H 6.35 v -0.058911 c 0,-0.07054 -0.00736,-0.1393378 -0.020671,-0.2056722 H 6.0141031 c 0.035374,0.082354 0.05984,0.170948 0.071314,0.2645834 z"
       style="fill:#f9f9f9;stroke-width:0.260007"
       id="path31" />
    <path
       d="M 6.3293294,1.8520833 C 6.3426446,1.9184177 6.35,1.9872155 6.35,2.0577555 v 0.058911 h 0.7503417 c 0.4683349,0 0.8454265,0.4086164 0.8454265,0.9162231 v 3.988387 c 0,0.5076066 -0.3770916,0.9162231 -0.8454265,0.9162231 H 5.087028 c -0.3402855,0 -0.631546,-0.2164954 -0.7658448,-0.5291666 H 3.9894205 c 0.091213,0.4544036 0.4786207,0.79375 0.9456787,0.79375 H 7.235734 c 0.5352397,0 0.9663493,-0.4456694 0.9663493,-0.9994222 V 2.8515055 c 0,-0.5537527 -0.4311096,-0.9994222 -0.9663493,-0.9994222 z"
       style="fill:#f9f9f9;stroke-width:0.260007"
       id="path30" />
  </g>
</svg>
