<?xml version="1.0" encoding="UTF-8" standalone="no"?>
<!-- Created with Inkscape (http://www.inkscape.org/) -->

<svg
   width="32"
   height="32"
   viewBox="0 0 8.4666666 8.4666666"
   version="1.1"
   id="svg1"
   xmlns="http://www.w3.org/2000/svg"
   xmlns:svg="http://www.w3.org/2000/svg">
  <defs
     id="defs1" />
  <g
     id="layer1">
    <path
       d="M 6.6145833,2.2967317 H 6.2104736 c 0.00356,0.022927 0.00723,0.04578 0.00723,0.069685 v 5.2257921 c 0,0.2616653 -0.2210297,0.4720712 -0.495577,0.4720712 h -2.977596 c -0.2745473,0 -0.495577,-0.2104059 -0.495577,-0.4720712 v -5.225793 c 0,-0.023904 0.00367,-0.046756 0.00723,-0.069685 H 1.8520833 v 5.6360386 c 0,0.2957955 0.265339,0.5338963 0.5947957,0.5338963 h 3.5729086 c 0.3294567,0 0.5947957,-0.2381008 0.5947957,-0.5338963 z"
       style="fill:#f9f9f9;stroke-width:0.281745"
       id="path2" />
    <rect
       style="fill:#f9f9f9;stroke-width:0.264583"
       id="rect2"
       width="6.3499999"
       height="0.52916664"
       x="0.92604166"
       y="1.8520833"
       rx="0.26458332"
       ry="0.26458332" />
    <rect
       style="fill:#f9f9f9;stroke-width:0.209171"
       id="rect2-2"
       width="3.96875"
       height="0.52916664"
       x="3.175"
       y="-4.4979167"
       rx="0.16536458"
       ry="0.26458332"
       transform="rotate(90)" />
    <rect
       style="fill:#f9f9f9;stroke-width:0.209171"
       id="rect2-2-7"
       width="3.96875"
       height="0.52916664"
       x="3.175"
       y="-3.4395833"
       rx="0.16536458"
       ry="0.26458332"
       transform="rotate(90)" />
    <rect
       style="fill:#f9f9f9;stroke-width:0.209171"
       id="rect2-2-7-6"
       width="3.96875"
       height="0.52916664"
       x="3.175"
       y="-5.5562501"
       rx="0.16536458"
       ry="0.26458332"
       transform="rotate(90)" />
    <path
       d="m 3.4375162,0.66145833 c -0.2921381,0 -0.5270996,0.24660997 -0.5270996,0.55319827 v 0.7226463 h 0.396875 V 1.4876563 c 0,-0.2220063 0.164473,-0.4009165 0.3689698,-0.4009165 h 1.1141438 c 0.2044968,0 0.3689698,0.1789102 0.3689698,0.4009165 V 1.9373029 H 5.55625 V 1.2146566 c 0,-0.3065883 -0.2349615,-0.55319827 -0.5270996,-0.55319827 z"
       style="fill:#f9f9f9;stroke-width:0.270106"
       id="path4" />
  </g>
</svg>
