<?xml version="1.0" encoding="UTF-8" standalone="no"?>
<!-- Created with Inkscape (http://www.inkscape.org/) -->

<svg
   width="32"
   height="32"
   viewBox="0 0 8.4666666 8.4666666"
   version="1.1"
   id="svg1"
   sodipodi:docname="documents.svg"
   inkscape:version="1.3.2 (091e20ef0f, 2023-11-25, custom)"
   xmlns:inkscape="http://www.inkscape.org/namespaces/inkscape"
   xmlns:sodipodi="http://sodipodi.sourceforge.net/DTD/sodipodi-0.dtd"
   xmlns="http://www.w3.org/2000/svg"
   xmlns:svg="http://www.w3.org/2000/svg">
  <sodipodi:namedview
     id="namedview1"
     pagecolor="#505050"
     bordercolor="#ffffff"
     borderopacity="1"
     inkscape:showpageshadow="0"
     inkscape:pageopacity="0"
     inkscape:pagecheckerboard="1"
     inkscape:deskcolor="#505050"
     inkscape:document-units="px"
     inkscape:zoom="21.528425"
     inkscape:cx="18.022684"
     inkscape:cy="17.836883"
     inkscape:window-width="1668"
     inkscape:window-height="1323"
     inkscape:window-x="1732"
     inkscape:window-y="925"
     inkscape:window-maximized="1"
     inkscape:current-layer="layer1" />
  <defs
     id="defs1" />
  <g
     inkscape:label="Layer 1"
     inkscape:groupmode="layer"
     id="layer1">
    <path
       d="m 3.5596708,8.2346389 c 0.014855,-0.074005 0.023061,-0.1507629 0.023061,-0.2294623 v -0.065725 h 0.8371323 c 0.3796983,0 0.7045892,-0.241537 0.854429,-0.5903742 H 5.6259819 C 5.5242202,7.8560407 5.0920578,8.2346388 4.5709179,8.2346388 Z"
       style="fill:#f9f9f9;stroke-width:0.290083"
       id="path43" />
    <path
       d="M 3.5596708,8.2346389 H 3.2079826 c 0.039464,-0.09188 0.066764,-0.1907212 0.079561,-0.2951873 H 3.582731 v 0.065725 c 0,0.078698 -0.00822,0.1554551 -0.02306,0.2294623 z"
       style="fill:#f9f9f9;stroke-width:0.290083"
       id="path41" />
    <path
       d="m 1.3192456,2.0357067 c -0.039464,0.091881 -0.066762,0.1907211 -0.079562,0.2951872 H 0.92604712 v -0.065724 c 0,-0.078699 0.008221,-0.1554548 0.0230623,-0.2294619 z"
       style="fill:#f9f9f9;stroke-width:0.290083"
       id="path40" />
    <path
       d="M 0.92604712,2.3308939 H 1.2396834 c -0.00547,0.044783 -0.00923,0.090177 -0.00923,0.1366394 v 4.4497173 c 0,0.5663206 0.4207485,1.022201 0.9432156,1.022201 h 1.1138658 c -0.012796,0.1044651 -0.040094,0.2033079 -0.079558,0.2951873 h -1.20381 c -0.5971052,0 -1.07812554,-0.4972194 -1.07812554,-1.1150238 z"
       style="fill:#f9f9f9;stroke-width:0.290083"
       id="path39" />
    <path
       d="M 1.3192456,2.0357067 H 0.94910845 C 1.0508686,1.5287428 1.4831296,1.1501446 2.0041723,1.1501446 h 1.0112468 c -0.014855,0.074006 -0.023061,0.150763 -0.023061,0.2294623 v 0.065725 H 2.1736735 c -0.3796171,0 -0.7045952,0.2415367 -0.8544279,0.5903748 z"
       style="fill:#f9f9f9;stroke-width:0.290083"
       id="path38" />
    <path
       d="m 2.9923577,1.4453322 v -0.065725 c 0,-0.078698 0.00822,-0.1554548 0.023062,-0.2294621 H 3.385557 C 3.346092,1.2420241 3.318794,1.3408658 3.305996,1.4453321 Z"
       style="fill:#f9f9f9;stroke-width:0.290083"
       id="path37" />
    <path
       d="M 3.2967697,2.3948896 C 3.2101552,2.2977628 3.1075368,2.2171079 2.9923577,2.1567797 V 1.4453322 h 0.3136364 c -0.00547,0.044783 -0.00923,0.090178 -0.00923,0.1366392 z"
       style="fill:#f9f9f9;stroke-width:0.290083"
       id="path36" />
    <path
       d="m 3.2967697,2.3948896 v 0.9582055 c 0,-0.298396 -0.1174633,-0.5652635 -0.304412,-0.751805 V 2.1567797 c 0.1151791,0.060329 0.2177975,0.1409831 0.304412,0.2381099 z"
       style="fill:#f9f9f9;stroke-width:0.290083"
       id="path35" />
    <path
       d="M 3.2967697,7.0106493 C 3.1086825,6.8101346 2.9923577,6.5368154 2.9923577,6.2340533 V 2.6012901 c 0.1869487,0.1865415 0.304412,0.453409 0.304412,0.751805 v 2.6785936 z"
       style="fill:#f9f9f9;stroke-width:0.290083"
       id="path34" />
    <path
       d="M 3.5827323,7.2280042 C 3.4757387,7.1719633 3.3793925,7.0987319 3.2967697,7.0106493 V 6.0316887 c 0,0.2887001 0.1095474,0.5483988 0.2859626,0.7339324 z"
       style="fill:#f9f9f9;stroke-width:0.290083"
       id="path33" />
    <path
       d="M 3.5827323,7.2280042 V 6.7656211 C 3.7523777,6.9440348 3.983843,7.0538897 4.2399852,7.0538897 h 1.1138704 c -0.0128,0.1044652 -0.040096,0.2033081 -0.079563,0.2951875 H 4.070483 c -0.1759589,0 -0.3412997,-0.044366 -0.4877507,-0.121073 z"
       style="fill:#f9f9f9;stroke-width:0.290083"
       id="path32" />
    <path
       d="m 5.3538556,7.0538897 h 0.2951873 v 0.065725 c 0,0.078698 -0.00822,0.1554549 -0.023062,0.229462 H 5.2742935 c 0.039466,-0.09188 0.066762,-0.1907216 0.079562,-0.295187 z"
       style="fill:#f9f9f9;stroke-width:0.290083"
       id="path31" />
    <path
       d="m 5.6259814,7.3490772 c 0.014855,-0.074005 0.023062,-0.1507628 0.023062,-0.2294621 V 7.0538901 H 6.486176 c 0.5225064,0 0.9432155,-0.4558803 0.9432155,-1.0222011 V 1.5819716 c 0,-0.5663204 -0.4207091,-1.02220096 -0.9432155,-1.02220096 H 4.2399856 c -0.379646,0 -0.7045958,0.24153712 -0.8544287,0.59037436 H 3.0154191 C 3.1171827,0.64318136 3.5494012,0.26458333 4.070483,0.26458333 h 2.5667453 c 0.59715,0 1.0781257,0.49721923 1.0781257,1.11502377 v 4.8544462 c 0,0.6178045 -0.4809757,1.1150239 -1.0781257,1.1150239 z"
       style="fill:#f9f9f9;stroke-width:0.290083"
       id="path30" />
    <rect
       style="fill:#f9f9f9;stroke-width:0.31484"
       id="rect1"
       width="2.9518721"
       height="0.44278085"
       x="3.8779192"
       y="1.7405196" />
    <rect
       style="fill:#f9f9f9;stroke-width:0.31484"
       id="rect1-9"
       width="2.9518721"
       height="0.44278085"
       x="3.8779192"
       y="2.9212685" />
    <rect
       style="fill:#f9f9f9;stroke-width:0.31484"
       id="rect1-9-2"
       width="2.9518721"
       height="0.44278085"
       x="3.8779192"
       y="4.1020174" />
    <rect
       style="fill:#f9f9f9;stroke-width:0.31484"
       id="rect1-9-3"
       width="2.9518721"
       height="0.44278085"
       x="3.8779192"
       y="5.2827668" />
    <rect
       style="fill:#f9f9f9;stroke-width:0.222623"
       id="rect1-7"
       width="1.4759361"
       height="0.44278085"
       x="1.811609"
       y="2.7736752" />
    <rect
       style="fill:#f9f9f9;stroke-width:0.222623"
       id="rect1-9-36"
       width="1.4759361"
       height="0.44278085"
       x="1.811609"
       y="3.9544241" />
    <rect
       style="fill:#f9f9f9;stroke-width:0.222623"
       id="rect1-9-2-1"
       width="1.4759361"
       height="0.44278085"
       x="1.811609"
       y="5.1351733" />
    <rect
       style="fill:#f9f9f9;stroke-width:0.222623"
       id="rect1-9-3-2"
       width="1.4759361"
       height="0.44278085"
       x="1.811609"
       y="6.3159223" />
  </g>
</svg>
