<?xml version="1.0" encoding="UTF-8" standalone="no"?>
<!-- Created with Inkscape (http://www.inkscape.org/) -->

<svg
   width="32"
   height="32"
   viewBox="0 0 8.4666666 8.4666666"
   version="1.1"
   id="svg1"
   sodipodi:docname="file.svg"
   inkscape:version="1.3.2 (091e20ef0f, 2023-11-25, custom)"
   xmlns:inkscape="http://www.inkscape.org/namespaces/inkscape"
   xmlns:sodipodi="http://sodipodi.sourceforge.net/DTD/sodipodi-0.dtd"
   xmlns="http://www.w3.org/2000/svg"
   xmlns:svg="http://www.w3.org/2000/svg">
  <sodipodi:namedview
     id="namedview1"
     pagecolor="#505050"
     bordercolor="#ffffff"
     borderopacity="1"
     inkscape:showpageshadow="0"
     inkscape:pageopacity="0"
     inkscape:pagecheckerboard="1"
     inkscape:deskcolor="#505050"
     inkscape:document-units="px"
     inkscape:zoom="28.50875"
     inkscape:cx="12.31201"
     inkscape:cy="20.239401"
     inkscape:window-width="1668"
     inkscape:window-height="1323"
     inkscape:window-x="40"
     inkscape:window-y="925"
     inkscape:window-maximized="1"
     inkscape:current-layer="layer1" />
  <defs
     id="defs1" />
  <g
     inkscape:label="Layer 1"
     inkscape:groupmode="layer"
     id="layer1">
    <path
       d="m 6.6145833,2.2530924 -0.396875,-0.396875 v 5.3299072 c 0,0.196311 -0.1475056,0.3545003 -0.3307292,0.3545003 H 2.5796875 c -0.1832236,0 -0.3307292,-0.1581893 -0.3307292,-0.3545003 V 1.280542 c 0,-0.196311 0.1475056,-0.35450034 0.3307292,-0.35450034 h 2.707845 l -0.396875,-0.396875 H 2.2489583 c -0.2198683,0 -0.396875,0.17700669 -0.396875,0.396875 V 7.5406249 c 0,0.2198684 0.1770067,0.396875 0.396875,0.396875 h 3.96875 c 0.2198683,0 0.396875,-0.1770066 0.396875,-0.396875 z"
       style="fill:#f9f9f9;stroke-width:0.264583"
       id="path3" />
    <path
       d="M 6.6166503,2.2551595 4.8947916,0.53330078 V 1.8582845 c 0,0.2198685 0.1770065,0.396875 0.396875,0.396875 z"
       style="fill:#f9f9f9;stroke-width:0.264583"
       id="path2" />
    <path
       d="m 5.0270833,4.431254 h 0.3860229 c 0.2431073,0 0.4387329,-0.1588207 0.4387329,-0.3560506 V 3.98632 c 0,-0.1972298 -0.1956256,-0.3560507 -0.4387329,-0.3560507 H 5.0270833 Z"
       style="fill:#f9f9f9;stroke-width:0.254203"
       id="path9" />
    <path
       d="m 1.3027628,2.9104166 c -0.1353037,0 -0.2444295,0.1180044 -0.2444295,0.2645834 v 2.6458333 c 0,0.146579 0.1091258,0.2645833 0.2444295,0.2645833 h 5.861141 c 0.1353037,0 0.2444295,-0.1180043 0.2444295,-0.2645833 V 3.175 c 0,-0.146579 -0.1091258,-0.2645834 -0.2444295,-0.2645834 z m 3.6726441,0.5229655 h 0.5462198 c 0.3024305,0 0.5457032,0.2360093 0.5457032,0.5291667 v 0.1322917 c 0,0.2931574 -0.2432727,0.5291666 -0.5457032,0.5291666 H 5.0270833 v 0.7999512 c 0,0.07329 -0.059002,0.1322917 -0.1322917,0.1322917 C 4.8215021,5.55625 4.7625,5.4972478 4.7625,5.4239583 V 3.571875 c 0,-0.07329 0.059002,-0.1322917 0.1322916,-0.1322917 0.02644,-0.00389 0.052969,-0.0062 0.080615,-0.0062 z m -2.4618653,0.0062 H 3.571875 c 0.07329,0 0.1322916,0.059002 0.1322916,0.1322917 0,0.023237 -0.00662,0.044623 -0.017053,0.063562 -0.00207,0.019579 -0.00819,0.039154 -0.018603,0.057361 L 2.7548706,5.2916666 H 3.571875 c 0.07329,0 0.1322916,0.059002 0.1322916,0.1322917 0,0.07329 -0.059002,0.1322917 -0.1322916,0.1322917 H 2.5135416 c -0.07329,0 -0.1322916,-0.059002 -0.1322916,-0.1322917 0,-0.021737 0.00577,-0.041888 0.014986,-0.059945 0.00207,-0.019578 0.00768,-0.039155 0.018087,-0.057361 L 3.330546,3.7041666 H 2.5135416 c -0.07329,0 -0.1322916,-0.059002 -0.1322916,-0.1322916 0,-0.07329 0.059002,-0.1322917 0.1322916,-0.1322917 z m 1.7197917,0 c 0.07329,0 0.1322917,0.059002 0.1322917,0.1322917 v 1.8520833 c 0,0.07329 -0.059002,0.1322917 -0.1322917,0.1322917 -0.073289,0 -0.1322917,-0.059002 -0.1322917,-0.1322917 V 3.571875 c 0,-0.07329 0.059002,-0.1322917 0.1322917,-0.1322917 z"
       style="fill:#f9f9f9;stroke-width:0.254203"
       id="path8" />
  </g>
</svg>
