<?xml version="1.0" encoding="UTF-8" standalone="no"?>
<!-- Created with Inkscape (http://www.inkscape.org/) -->

<svg
   width="32"
   height="32"
   viewBox="0 0 8.4666666 8.4666666"
   version="1.1"
   id="svg1"
   inkscape:version="1.3.2 (091e20ef0f, 2023-11-25, custom)"
   sodipodi:docname="home.svg"
   xmlns:inkscape="http://www.inkscape.org/namespaces/inkscape"
   xmlns:sodipodi="http://sodipodi.sourceforge.net/DTD/sodipodi-0.dtd"
   xmlns="http://www.w3.org/2000/svg"
   xmlns:svg="http://www.w3.org/2000/svg">
  <sodipodi:namedview
     id="namedview1"
     pagecolor="#505050"
     bordercolor="#ffffff"
     borderopacity="1"
     inkscape:showpageshadow="0"
     inkscape:pageopacity="0"
     inkscape:pagecheckerboard="1"
     inkscape:deskcolor="#505050"
     inkscape:document-units="px"
     inkscape:zoom="22.627417"
     inkscape:cx="6.3860581"
     inkscape:cy="13.567611"
     inkscape:window-width="2133"
     inkscape:window-height="1323"
     inkscape:window-x="40"
     inkscape:window-y="925"
     inkscape:window-maximized="1"
     inkscape:current-layer="layer1" />
  <defs
     id="defs1" />
  <g
     inkscape:label="Layer 1"
     inkscape:groupmode="layer"
     id="layer1">
    <path
       d="M 1.0583333,4.8658528 V 8.066691 c 0,0.2214325 0.092981,0.3999756 0.208256,0.3999756 H 3.3072916 V 5.953125 c 0,-0.07329 0.053637,-0.1322917 0.1204061,-0.1322917 h 1.6112712 c 0.066769,0 0.1204061,0.059002 0.1204061,0.1322917 v 2.5135416 h 2.0407023 c 0.1152749,0 0.208256,-0.1785431 0.208256,-0.3999756 V 4.8658528 Z"
       style="fill:#f9f9f9;stroke-width:0.227952"
       id="path16" />
    <path
       d="M 4.6395101,2.5611 A 0.79374999,0.79374999 0 0 1 4.194576,2.7016599 0.79374999,0.79374999 0 0 1 3.797701,2.5853879 L 1.0614339,4.8658688 h 6.3437988 z"
       style="fill:#f9f9f9;stroke-width:0.264583"
       id="path11" />
    <path
       d="M 3.5951294,2.4169227 A 0.79374999,0.79374999 0 0 1 3.400826,1.9079099 0.79374999,0.79374999 0 0 1 3.7083008,1.2862427 L 0.07958171,4.3315345 0.58962809,4.9392494 Z"
       style="opacity:1;fill:#f9f9f9;stroke-width:0.210226"
       id="path5" />
    <path
       d="M 4.7568156,1.3477375 A 0.79374999,0.79374999 0 0 1 4.988326,1.9079099 0.79374999,0.79374999 0 0 1 4.7950561,2.416406 L 7.8021077,4.9392494 8.3126708,4.3315345 Z"
       style="fill:#f9f9f9;stroke-width:0.210226"
       id="path10" />
    <path
       d="M 4.6395101,2.5611 4.2333333,2.2226194 3.797701,2.5853879 A 0.79374999,0.79374999 0 0 0 4.194576,2.7016599 0.79374999,0.79374999 0 0 0 4.6395101,2.5611 Z"
       style="opacity:1;fill:#f9f9f9;stroke-width:0.396874"
       id="path12" />
    <path
       d="m 4.1961263,1.8278114 -0.042375,0.050126 0.042375,0.03514 0.041858,-0.03514 z"
       style="opacity:1;fill:#f9f9f9;stroke-width:0.396874"
       id="path9" />
    <path
       d="M 4.755782,1.346704 4.664315,1.270223 4.1961266,1.8278115 l 0.041858,0.050126 -0.041858,0.03514 0.5989298,0.5033285 A 0.79374999,0.79374999 0 0 0 4.988326,1.9079099 0.79374999,0.79374999 0 0 0 4.755782,1.346704 Z"
       style="opacity:1;fill:#f9f9f9;stroke-width:0.396874"
       id="path8" />
    <path
       d="M 4.194576,1.1141604 A 0.79374999,0.79374999 0 0 0 3.7083008,1.2862427 l 0.01912,-0.01602 0.4687053,0.5575884 0.4681884,-0.5575884 0.091467,0.076481 A 0.79374999,0.79374999 0 0 0 4.194576,1.1141604 Z"
       style="opacity:1;fill:#f9f9f9;stroke-width:0.396874"
       id="path7" />
    <path
       d="M 3.5951294,2.4169227 4.1961263,1.9130775 4.1537513,1.8779375 4.1961263,1.8278115 3.727421,1.2702231 3.708301,1.2862431 A 0.79374999,0.79374999 0 0 0 3.400826,1.9079099 0.79374999,0.79374999 0 0 0 3.5951294,2.4169227 Z"
       style="opacity:1;fill:#f9f9f9;stroke-width:0.396874"
       id="path6" />
    <rect
       style="opacity:1;fill:#f9f9f9;stroke-width:0.264583"
       id="rect15"
       width="1.07417"
       height="2.17155"
       x="5.9187737"
       y="1.2287734"
       rx="0.13229166"
       ry="0.13229166" />
    <rect
       style="fill:#f9f9f9;stroke-width:0.256493"
       id="rect1"
       width="6.3340068"
       height="0.24896862"
       x="1.0687113"
       y="4.8602562" />
    <path
       sodipodi:type="star"
       style="fill:#f9f9f9;stroke-width:0.264583"
       id="path1"
       inkscape:flatsided="true"
       sodipodi:sides="3"
       sodipodi:cx="3.7649677"
       sodipodi:cy="2.552037"
       sodipodi:r1="0.80511367"
       sodipodi:r2="0.40255684"
       sodipodi:arg1="0.52359878"
       sodipodi:arg2="1.5707963"
       inkscape:rounded="5.6864236e-15"
       inkscape:randomized="0"
       d="m 4.4622166,2.9545938 -1.3944978,0 0.6972489,-1.2076705 z"
       inkscape:transform-center-y="-0.079377943"
       transform="matrix(0.82587789,0,0,0.39436889,1.1207595,1.5400735)" />
    <rect
       style="fill:#f9f9f9;stroke-width:0.257931"
       id="rect2"
       width="1.3229166"
       height="0.79374999"
       x="-2.0845625"
       y="3.3603685"
       transform="matrix(-0.7709672,0.63687485,0.63687485,0.7709672,0,0)" />
    <rect
       style="fill:#f9f9f9;stroke-width:0.257931"
       id="rect2-6"
       width="1.3229166"
       height="0.79374999"
       x="4.3942037"
       y="-1.9820313"
       transform="rotate(39.559178)" />
  </g>
</svg>
