<?xml version="1.0" encoding="UTF-8" standalone="no"?>
<!-- Created with Inkscape (http://www.inkscape.org/) -->

<svg
   width="32"
   height="32"
   viewBox="0 0 8.4666666 8.4666666"
   version="1.1"
   id="svg1"
   inkscape:version="1.3.2 (091e20ef0f, 2023-11-25, custom)"
   sodipodi:docname="settings.svg"
   xmlns:inkscape="http://www.inkscape.org/namespaces/inkscape"
   xmlns:sodipodi="http://sodipodi.sourceforge.net/DTD/sodipodi-0.dtd"
   xmlns="http://www.w3.org/2000/svg"
   xmlns:svg="http://www.w3.org/2000/svg">
  <sodipodi:namedview
     id="namedview1"
     pagecolor="#505050"
     bordercolor="#ffffff"
     borderopacity="1"
     inkscape:showpageshadow="0"
     inkscape:pageopacity="0"
     inkscape:pagecheckerboard="1"
     inkscape:deskcolor="#505050"
     inkscape:document-units="px"
     showguides="false"
     inkscape:zoom="14.482445"
     inkscape:cx="14.293167"
     inkscape:cy="25.064829"
     inkscape:window-width="1668"
     inkscape:window-height="1323"
     inkscape:window-x="40"
     inkscape:window-y="925"
     inkscape:window-maximized="1"
     inkscape:current-layer="layer1" />
  <defs
     id="defs1" />
  <g
     inkscape:label="Layer 1"
     inkscape:groupmode="layer"
     id="layer1">
    <path
       d="m 1.444873,3.4395833 h 0.8283732 a 2.1166666,2.1166666 0 0 1 0.014469,-0.03514 L 1.6965373,2.813265 A 2.9104166,2.9104166 0 0 0 1.444873,3.4395833 Z"
       style="fill:#f9f9f9;stroke-width:0.232312"
       id="path23" />
    <path
       d="M 1.6825846,5.6234293 2.2742798,5.0317342 a 2.1166666,2.1166666 0 0 1 -0.00103,-0.00465 H 1.444873 a 2.9104166,2.9104166 0 0 0 0.2377116,0.596346 z"
       style="fill:#f9f9f9;stroke-width:0.232312"
       id="path21" />
    <path
       d="M 3.4395833,7.0217936 V 6.1934204 A 2.1166666,2.1166666 0 0 1 3.3806722,6.1660319 L 2.7884603,6.7582438 a 2.9104166,2.9104166 0 0 0 0.651123,0.2635498 z"
       style="fill:#f9f9f9;stroke-width:0.232312"
       id="path18" />
    <path
       d="M 5.0270833,6.1934204 V 7.0217936 A 2.9104166,2.9104166 0 0 0 5.6534016,6.7701293 L 5.0622233,6.178951 a 2.1166666,2.1166666 0 0 1 -0.03514,0.014469 z"
       style="fill:#f9f9f9;stroke-width:0.232312"
       id="path16" />
    <path
       d="M 6.181018,5.0575724 6.7721964,5.6487508 A 2.9104166,2.9104166 0 0 0 7.0217936,5.0270833 H 6.1934204 a 2.1166666,2.1166666 0 0 1 -0.012402,0.030489 z"
       style="fill:#f9f9f9;stroke-width:0.232312"
       id="path12" />
    <path
       d="m 6.1944539,3.4395833 h 0.837675 A 2.9104166,2.9104166 0 0 0 6.7587605,2.7879435 L 6.1691324,3.3775716 a 2.1166666,2.1166666 0 0 1 0.025322,0.062012 z"
       style="fill:#f9f9f9;stroke-width:0.232312"
       id="path10" />
    <path
       d="m 5.0270833,1.4345377 v 0.837675 a 2.1166666,2.1166666 0 0 1 0.00517,0.00207 L 5.6270467,1.679484 A 2.9104166,2.9104166 0 0 0 5.0270833,1.4345377 Z"
       style="fill:#f9f9f9;stroke-width:0.232312"
       id="path7" />
    <path
       d="m 2.8179158,1.6944702 0.5911784,0.5911784 a 2.1166666,2.1166666 0 0 1 0.030489,-0.012402 V 1.444873 A 2.9104166,2.9104166 0 0 0 2.8179158,1.6944702 Z"
       style="fill:#f9f9f9;stroke-width:0.232312"
       id="path3" />
    <path
       d="m 5.0270833,7.0217936 a 2.9104166,2.9104166 0 0 1 -0.79375,0.1219563 2.9104166,2.9104166 0 0 1 -0.79375,-0.1219563 v 0.6764445 c 0,0.2792004 0.3540129,0.5038452 0.79375,0.5038452 0.4397371,0 0.79375,-0.2246448 0.79375,-0.5038452 z"
       style="fill:#f9f9f9;stroke-width:0.273108"
       id="path17" />
    <path
       d="M 5.0270833,6.1934204 A 2.1166666,2.1166666 0 0 1 4.2333333,6.35 2.1166666,2.1166666 0 0 1 3.4395833,6.1934204 v 0.8283732 a 2.9104166,2.9104166 0 0 0 0.79375,0.1219563 2.9104166,2.9104166 0 0 0 0.79375,-0.1219563 z"
       style="fill:#f9f9f9;stroke-width:0.273108"
       id="path15" />
    <path
       d="m 5.0270833,1.4345377 a 2.9104166,2.9104166 0 0 0 -0.79375,-0.111621 2.9104166,2.9104166 0 0 0 -0.79375,0.1219563 v 0.8283732 a 2.1166666,2.1166666 0 0 1 0.79375,-0.1565795 2.1166666,2.1166666 0 0 1 0.79375,0.155546 z"
       style="fill:#f9f9f9;stroke-width:0.273108"
       id="path6" />
    <path
       d="m 4.2333333,0.26458333 c -0.4397371,0 -0.79375,0.22464481 -0.79375,0.50384521 V 1.444873 a 2.9104166,2.9104166 0 0 1 0.79375,-0.1219563 2.9104166,2.9104166 0 0 1 0.79375,0.111621 V 0.76842854 c 0,-0.2792004 -0.3540129,-0.50384521 -0.79375,-0.50384521 z"
       style="fill:#f9f9f9;stroke-width:0.273108"
       id="path4" />
    <path
       d="M 2.7884603,6.7582438 A 2.9104166,2.9104166 0 0 1 1.6825846,5.6234293 L 1.2050944,6.1009195 C 1.0080847,6.2979292 1.0994454,6.7063383 1.4097331,7.0166259 1.7200207,7.3269136 2.1284298,7.4182742 2.3254394,7.2212646 Z"
       style="fill:#f9f9f9;stroke-width:0.272534"
       id="path20" />
    <path
       d="M 2.7884603,6.7582438 3.3806722,6.1660319 A 2.1166666,2.1166666 0 0 1 2.2742798,5.0317342 L 1.6825846,5.6234293 a 2.9104166,2.9104166 0 0 0 1.1058757,1.1348145 z"
       style="fill:#f9f9f9;stroke-width:0.272534"
       id="path19" />
    <path
       d="M 5.6270467,1.679484 A 2.9104166,2.9104166 0 0 1 6.7587605,2.7879435 L 7.2150634,2.3316406 C 7.4120731,2.134631 7.3212292,1.7262219 7.0109415,1.4159342 6.7006538,1.1056466 6.2922448,1.0142859 6.0952351,1.2112956 Z"
       style="fill:#f9f9f9;stroke-width:0.272534"
       id="path8" />
    <path
       d="M 6.1691324,3.3775716 6.7587605,2.7879435 A 2.9104166,2.9104166 0 0 0 5.6270467,1.679484 L 5.0322509,2.2742798 a 2.1166666,2.1166666 0 0 1 1.1368815,1.1032918 z"
       style="fill:#f9f9f9;stroke-width:0.272534"
       id="path5" />
    <path
       d="M 1.6965373,2.813265 A 2.9104166,2.9104166 0 0 1 2.8179158,1.6944702 L 2.2975342,1.1740885 C 2.1005245,0.97707888 1.6921155,1.0684395 1.3818278,1.3787272 1.0715401,1.6890149 0.98069623,2.0974239 1.1777059,2.2944336 Z"
       style="fill:#f9f9f9;stroke-width:0.272534"
       id="path25" />
    <path
       d="M 6.7721964,5.6487508 A 2.9104166,2.9104166 0 0 1 5.6534016,6.7701293 L 6.0673299,7.1840576 C 6.2643395,7.3810672 6.6727486,7.2897066 6.9830362,6.9794189 7.2933239,6.6691312 7.3841678,6.2607222 7.1871581,6.0637125 Z"
       style="fill:#f9f9f9;stroke-width:0.272534"
       id="path14" />
    <path
       d="M 5.0622233,6.178951 5.6534016,6.7701293 A 2.9104166,2.9104166 0 0 0 6.7721964,5.6487508 L 6.181018,5.0575724 A 2.1166666,2.1166666 0 0 1 5.0622233,6.178951 Z"
       style="fill:#f9f9f9;stroke-width:0.272534"
       id="path13" />
    <path
       d="M 1.6965373,2.813265 2.2877156,3.4044433 A 2.1166666,2.1166666 0 0 1 3.4090942,2.2856486 L 2.8179158,1.6944702 A 2.9104166,2.9104166 0 0 0 1.6965373,2.813265 Z"
       style="fill:#f9f9f9;stroke-width:0.272534"
       id="path2" />
    <path
       d="M 1.444873,5.0270833 A 2.9104166,2.9104166 0 0 1 1.3229167,4.2333333 2.9104166,2.9104166 0 0 1 1.444873,3.4395833 H 0.76842854 c -0.2792004,0 -0.50384521,0.3540129 -0.50384521,0.79375 0,0.4397371 0.22464481,0.79375 0.50384521,0.79375 z"
       style="fill:#f9f9f9;stroke-width:0.273108"
       id="path24" />
    <path
       d="m 1.444873,5.0270833 h 0.8283732 a 2.1166666,2.1166666 0 0 1 -0.1565795,-0.79375 2.1166666,2.1166666 0 0 1 0.1565795,-0.79375 H 1.444873 a 2.9104166,2.9104166 0 0 0 -0.1219563,0.79375 2.9104166,2.9104166 0 0 0 0.1219563,0.79375 z"
       style="fill:#f9f9f9;stroke-width:0.273108"
       id="path22" />
    <path
       d="m 7.0321289,3.4395833 a 2.9104166,2.9104166 0 0 1 0.111621,0.79375 2.9104166,2.9104166 0 0 1 -0.1219563,0.79375 h 0.6764445 c 0.2792004,0 0.5038452,-0.3540129 0.5038452,-0.79375 0,-0.4397371 -0.2246448,-0.79375 -0.5038452,-0.79375 z"
       style="fill:#f9f9f9;stroke-width:0.273108"
       id="path11" />
    <path
       d="m 6.1934204,5.0270833 h 0.8283732 a 2.9104166,2.9104166 0 0 0 0.1219563,-0.79375 2.9104166,2.9104166 0 0 0 -0.111621,-0.79375 H 6.1944539 A 2.1166666,2.1166666 0 0 1 6.35,4.2333333 2.1166666,2.1166666 0 0 1 6.1934204,5.0270833 Z"
       style="fill:#f9f9f9;stroke-width:0.273108"
       id="path9" />
  </g>
</svg>
