<?xml version="1.0" encoding="UTF-8" standalone="no"?>
<!-- Created with Inkscape (http://www.inkscape.org/) -->

<svg
   width="32"
   height="32"
   viewBox="0 0 8.4666666 8.4666666"
   version="1.1"
   id="svg1"
   inkscape:version="1.3.2 (091e20ef0f, 2023-11-25, custom)"
   sodipodi:docname="settings.svg"
   xmlns:inkscape="http://www.inkscape.org/namespaces/inkscape"
   xmlns:sodipodi="http://sodipodi.sourceforge.net/DTD/sodipodi-0.dtd"
   xmlns="http://www.w3.org/2000/svg"
   xmlns:svg="http://www.w3.org/2000/svg">
  <sodipodi:namedview
     id="namedview1"
     pagecolor="#505050"
     bordercolor="#ffffff"
     borderopacity="1"
     inkscape:showpageshadow="0"
     inkscape:pageopacity="0"
     inkscape:pagecheckerboard="1"
     inkscape:deskcolor="#505050"
     inkscape:document-units="px"
     showguides="false"
     inkscape:zoom="115.85956"
     inkscape:cx="14.517576"
     inkscape:cy="25.142509"
     inkscape:window-width="3360"
     inkscape:window-height="1323"
     inkscape:window-x="40"
     inkscape:window-y="925"
     inkscape:window-maximized="1"
     inkscape:current-layer="layer1" />
  <defs
     id="defs1" />
  <g
     inkscape:label="Layer 1"
     inkscape:groupmode="layer"
     id="layer1">
    <path
       d="m 5.0270833,6.9826437 a 2.9104166,3.0069545 0 0 1 -0.79375,0.1260015 2.9104166,3.0069545 0 0 1 -0.79375,-0.1260015 v 0.698882 c 0,0.2884614 0.3540129,0.5205576 0.79375,0.5205576 0.4397371,0 0.79375,-0.2320962 0.79375,-0.5205576 z"
       style="fill:#f9f9f9;stroke-width:0.277601"
       id="path17" />
    <path
       d="m 4.2333333,0.26458333 c -0.4397371,0 -0.79375,0.2333259 -0.79375,0.52331562 V 1.4904837 a 2.9104166,3.0228857 0 0 1 0.79375,-0.1266692 2.9104166,3.0228857 0 0 1 0.79375,0.1159345 V 0.78789895 c 0,-0.28998972 -0.3540129,-0.52331562 -0.79375,-0.52331562 z"
       style="fill:#f9f9f9;stroke-width:0.278335"
       id="path4" />
    <path
       d="M 2.8021317,6.7397646 A 2.9104166,2.9104166 0 0 1 1.696256,5.6049501 L 1.2187658,6.0824403 C 1.0217561,6.27945 1.1131168,6.6878591 1.4234045,6.9981467 1.7336921,7.3084344 2.1421012,7.399795 2.3391108,7.2027854 Z"
       style="fill:#f9f9f9;stroke-width:0.272534"
       id="path20" />
    <path
       d="M 5.6086701,1.6951879 A 2.9104166,2.9104166 0 0 1 6.7403839,2.8036474 L 7.1966868,2.3473445 C 7.3936965,2.1503349 7.3028526,1.7419258 6.9925649,1.4316381 6.6822772,1.1213505 6.2738682,1.0299898 6.0768585,1.2269995 Z"
       style="fill:#f9f9f9;stroke-width:0.272534"
       id="path8" />
    <path
       d="M 1.7110696,2.820032 A 2.9104166,2.9104166 0 0 1 2.8324481,1.7012372 L 2.3120665,1.1808555 C 2.1150568,0.98384576 1.7066478,1.0752065 1.3963601,1.3854942 1.0860724,1.6957819 0.99522858,2.1041909 1.1922382,2.3012006 Z"
       style="fill:#f9f9f9;stroke-width:0.272534"
       id="path25" />
    <path
       d="M 6.7598961,5.6342453 A 2.9104166,2.9104166 0 0 1 5.6411013,6.7556238 L 6.0550296,7.1695521 C 6.2520392,7.3665617 6.6604483,7.2752011 6.9707359,6.9649134 7.2810236,6.6546257 7.3718675,6.2462167 7.1748578,6.049207 Z"
       style="fill:#f9f9f9;stroke-width:0.272534"
       id="path14" />
    <path
       d="m 1.4806609,5.0270833 a 2.9986642,2.9104166 0 0 1 -0.1256542,-0.79375 2.9986642,2.9104166 0 0 1 0.1256542,-0.79375 H 0.78370578 c -0.28766612,0 -0.51912245,0.3540129 -0.51912245,0.79375 0,0.4397371 0.23145633,0.79375 0.51912245,0.79375 z"
       style="fill:#f9f9f9;stroke-width:0.277218"
       id="path24" />
    <path
       d="m 6.9857281,3.4395833 a 3.0258448,2.9104166 0 0 1 0.1160479,0.79375 3.0258448,2.9104166 0 0 1 -0.1267931,0.79375 h 0.7032725 c 0.2902736,0 0.5238279,-0.3540129 0.5238279,-0.79375 0,-0.4397371 -0.2335543,-0.79375 -0.5238279,-0.79375 z"
       style="fill:#f9f9f9;stroke-width:0.278471"
       id="path11" />
    <path
       d="M 4.2333333,1.3229167 A 2.9104166,2.9104166 0 0 0 1.3229167,4.2333333 2.9104166,2.9104166 0 0 0 4.2333333,7.1437499 2.9104166,2.9104166 0 0 0 7.1437499,4.2333333 2.9104166,2.9104166 0 0 0 4.2333333,1.3229167 Z m 0,0.79375 A 2.1166666,2.1166666 0 0 1 6.35,4.2333333 2.1166666,2.1166666 0 0 1 4.2333333,6.35 2.1166666,2.1166666 0 0 1 2.1166667,4.2333333 2.1166666,2.1166666 0 0 1 4.2333333,2.1166667 Z"
       style="fill:#f9f9f9;stroke-width:0.291041"
       id="path27" />
  </g>
</svg>
